PathFileType	4	(X/Y/Z)	G:\マイドライブ\biomec\experimentalData\240725\static1.trc
DataRate	CameraRate	NumFrames	NumMarkers	Units	OrigDataRate	OrigDataStartFrame	OrigNumFrames
200.00	200.00	       4	52	mm	200.00	626	       834
Frame#	Time	handR			wrRI			wrRO			elbRI			elbRO			shRF			shRU			shRB			handL			wrLI			wrLO			elbLI			elbLO			shLF			shLU			shLB			toeR			baRI			baRO			heelR			anRI			anRO			knRI			knRO			troR			toeL			baLI			baLO			heelL			anLI			anLO			knLI			knLO			troL			head			earR			earL			clav			c7			ribR			ribL			xiph			ASISR			ASISL			PSISR			PSISL			t8			t11			L1			L3			LS			COX			
		X1	Y1	Z1	X2	Y2	Z2	X3	Y3	Z3	X4	Y4	Z4	X5	Y5	Z5	X6	Y6	Z6	X7	Y7	Z7	X8	Y8	Z8	X9	Y9	Z9	X10	Y10	Z10	X11	Y11	Z11	X12	Y12	Z12	X13	Y13	Z13	X14	Y14	Z14	X15	Y15	Z15	X16	Y16	Z16	X17	Y17	Z17	X18	Y18	Z18	X19	Y19	Z19	X20	Y20	Z20	X21	Y21	Z21	X22	Y22	Z22	X23	Y23	Z23	X24	Y24	Z24	X25	Y25	Z25	X26	Y26	Z26	X27	Y27	Z27	X28	Y28	Z28	X29	Y29	Z29	X30	Y30	Z30	X31	Y31	Z31	X32	Y32	Z32	X33	Y33	Z33	X34	Y34	Z34	X35	Y35	Z35	X36	Y36	Z36	X37	Y37	Z37	X38	Y38	Z38	X39	Y39	Z39	X40	Y40	Z40	X41	Y41	Z41	X42	Y42	Z42	X43	Y43	Z43	X44	Y44	Z44	X45	Y45	Z45	X46	Y46	Z46	X47	Y47	Z47	X48	Y48	Z48	X49	Y49	Z49	X50	Y50	Z50	X51	Y51	Z51	X52	Y52	Z52	

626	3.125	484.97769	295.51111	993.14435	485.87131	384.62524	1022.34711	526.72351	350.72043	1065.39539	569.46375	576.87921	1157.42700	511.39459	552.96521	1188.14722	604.42401	722.45490	1416.47632	542.64148	702.33270	1436.70349	499.08475	712.86102	1392.33105	505.26337	1462.08813	961.02698	500.67682	1374.05115	998.49786	536.95068	1423.83484	1038.92810	546.97491	1196.73669	1146.78088	500.99625	1231.50830	1182.90576	602.40295	1048.01062	1403.86353	543.97919	1071.68494	1424.91418	492.99481	1045.80786	1378.32654	725.70001	730.32300	51.35298	643.45081	772.69995	48.14493	624.74017	651.86224	43.95073	438.68332	729.43616	40.24314	521.70355	770.75385	112.48814	506.69757	677.34833	102.18000	527.71527	796.51892	468.29675	548.98737	692.37439	476.46185	595.49774	709.14771	868.60120	725.71155	1024.84570	53.01982	649.87018	978.29779	50.74684	627.07208	1092.22681	47.33015	438.03104	1031.78943	38.10327	527.71704	986.05359	129.77267	504.07733	1073.41101	104.83475	518.92322	960.86200	471.31125	524.88782	1067.90564	483.75500	572.81311	1053.74438	853.56262	533.88873	888.06226	1703.24939	637.99579	804.18652	1567.41650	644.05560	962.28967	1568.19421	649.71008	889.00848	1393.13110	529.81592	891.44727	1471.01172	632.24506	779.56268	1095.15796	628.01556	999.52942	1092.40112	679.41705	887.85675	1233.61694	656.42572	779.52771	950.24200	644.36841	1001.28296	958.16437	482.56314	820.21002	999.58984	479.48746	943.79822	1000.83527	464.65472	889.11896	1261.82507	479.57001	888.79932	1137.68457	490.34232	890.47961	1080.49719	486.66629	885.92969	1034.08325	469.86960	883.26636	996.43256	439.15964	880.72131	894.53851	
627	3.130	484.95581	295.59546	993.10297	485.85422	384.70566	1022.31476	526.71954	350.78098	1065.35876	569.47321	576.95325	1157.42090	511.38113	553.00745	1188.13049	604.46899	722.49042	1416.48389	542.66498	702.34564	1436.69568	499.09305	712.88629	1392.33813	505.31955	1462.10315	961.02600	500.73651	1374.08411	998.46649	537.04004	1423.84253	1038.89697	547.02332	1196.76489	1146.75281	501.01892	1231.53650	1182.89063	602.47137	1048.00708	1403.87866	543.99554	1071.71411	1424.90125	493.03378	1045.82227	1378.31409	725.70319	730.31165	51.34936	643.42621	772.70880	48.12568	624.72467	651.86536	43.96052	438.68369	729.42151	40.23026	521.67932	770.77313	112.48220	506.69907	677.34821	102.17052	527.70648	796.54138	468.29172	549.01074	692.37622	476.46274	595.51630	709.17853	868.60504	725.70355	1024.87329	53.02307	649.85266	978.29834	50.74666	627.07330	1092.20679	47.36361	438.02783	1031.78564	38.09176	527.71832	986.05707	129.78835	504.11588	1073.42627	104.80833	518.93341	960.86719	471.32864	524.88525	1067.91174	483.77045	572.83160	1053.77185	853.56726	533.95367	888.08209	1703.26257	638.02667	804.20905	1567.39355	644.09479	962.33472	1568.18152	649.73560	889.05725	1393.12927	529.84052	891.48676	1471.00952	632.25464	779.55865	1095.16199	628.01855	999.55225	1092.40295	679.45459	887.85364	1233.62744	656.45697	779.56116	950.25830	644.36523	1001.31183	958.14972	482.57855	820.24677	999.60468	479.51758	943.81903	1000.83765	464.68213	889.11945	1261.84644	479.57291	888.83356	1137.69189	490.37149	890.49524	1080.50769	486.70175	885.94366	1034.07068	469.87186	883.28772	996.42645	439.16907	880.75244	894.52448	
628	3.135	484.94995	295.65515	993.06592	485.85129	384.76376	1022.27533	526.71143	350.83618	1065.31079	569.46826	576.98694	1157.39709	511.36996	553.03888	1188.13342	604.47339	723.42902	1416.55664	542.69360	702.44824	1436.78210	499.13922	712.91412	1392.32336	505.43219	1462.12878	961.01263	500.81198	1374.08899	998.45007	537.09833	1423.83997	1038.87964	547.05743	1196.75891	1146.74097	501.08359	1231.53784	1182.87073	602.48193	1048.02551	1403.85767	544.04010	1071.74084	1424.88220	493.05478	1045.85376	1378.31262	725.71088	730.32227	51.35637	643.43030	772.70557	48.10633	624.73804	651.84705	43.96225	438.68170	729.41351	40.23317	521.74908	770.75684	112.52052	506.70151	677.34082	102.17609	527.72131	796.54504	468.28824	549.03662	692.37732	476.47787	595.54651	709.20337	868.60992	725.69696	1024.85510	53.01888	649.86407	978.30707	50.74888	627.08813	1092.24341	47.34608	438.04764	1031.78271	38.08916	527.53064	985.78180	130.16698	504.10370	1073.41882	104.83098	518.93683	960.88910	471.31335	524.91010	1067.94653	483.75830	572.83453	1053.79858	853.56531	534.03784	888.10577	1703.27161	638.05554	804.21051	1567.35962	644.15674	962.32990	1568.16846	649.76617	889.05109	1393.11755	529.87274	891.51123	1471.00647	632.28491	779.57751	1095.15649	628.03955	999.56335	1092.39050	679.49658	887.84827	1233.60046	656.46692	779.57172	950.24750	644.39484	1001.32550	958.15277	482.62115	820.25891	999.60059	479.55078	943.84955	1000.84436	464.70270	889.13959	1261.83704	479.60773	888.85638	1137.69006	490.38364	890.50793	1080.50867	486.72653	885.97345	1034.06665	469.91049	883.30347	996.42407	439.19315	880.76941	894.54248	
629	3.140	484.93674	295.71088	993.02856	485.86499	384.83594	1022.22687	526.70764	350.89703	1065.27539	569.47034	577.02576	1157.39294	511.34833	553.07623	1188.13318	604.48877	722.52515	1416.48499	542.69250	702.37555	1436.69885	499.14847	712.92615	1392.34473	505.53729	1462.14697	960.98236	500.89648	1374.10547	998.41473	537.19678	1423.84045	1038.88452	547.11438	1196.76758	1146.71594	501.14557	1231.56189	1182.85474	603.19226	1048.84851	1404.53821	544.05975	1071.77649	1424.88770	493.06534	1045.88879	1378.30786	725.71112	730.31818	51.35654	643.45789	772.70386	48.14674	624.73199	651.85901	43.96556	438.70789	729.42126	40.23905	521.72516	770.75189	112.46107	506.70422	677.34869	102.19160	527.73077	796.56805	468.27982	549.01440	692.41199	476.48395	595.57025	709.24274	868.60840	725.70367	1024.86267	53.02775	649.87366	978.29846	50.75809	627.08759	1092.23767	47.34454	438.04416	1031.79346	38.09493	527.71362	986.06073	129.77521	504.07596	1073.41833	104.83932	518.94672	960.88751	471.33307	524.91412	1067.93311	483.75565	572.88232	1053.81653	853.56635	534.11926	888.13208	1703.27759	638.09692	804.24280	1567.33899	644.17529	962.34283	1568.15942	649.80920	889.08594	1393.08411	529.87524	891.53229	1471.00708	632.27991	779.57678	1095.15857	628.04840	999.57330	1092.39709	679.49780	887.88831	1233.61340	656.49158	779.57196	950.23358	644.24390	1001.18689	958.10736	482.63782	820.28174	999.61621	479.57666	943.88055	1000.83685	464.67889	889.16644	1261.83789	479.62747	888.87219	1137.66724	490.40118	890.51886	1080.52100	486.75177	885.98267	1034.06152	469.92398	883.34186	996.44299	439.21484	880.77631	894.54352	
